<mxfile host="app.diagrams.net" modified="2024-01-22T08:55:14.762Z" agent="Mozilla/5.0 (Windows NT 10.0; Win64; x64) AppleWebKit/537.36 (KHTML, like Gecko) Chrome/120.0.0.0 Safari/537.36" etag="OgPttUwXEaEfVDheGEzJ" version="22.1.21" type="github">
  <diagram name="Page-1" id="6LsHS8Uy9L4oO94LSz3q">
    <mxGraphModel dx="794" dy="412" grid="1" gridSize="10" guides="1" tooltips="1" connect="1" arrows="1" fold="1" page="1" pageScale="1" pageWidth="850" pageHeight="1100" math="0" shadow="0">
      <root>
        <mxCell id="0" />
        <mxCell id="1" parent="0" />
        <mxCell id="x9D5OUzTq40V8jvRdq4F-1" value="" style="swimlane;startSize=0;swimlaneFillColor=#000000;fillColor=default;" vertex="1" parent="1">
          <mxGeometry x="240" y="250" width="400" height="585" as="geometry" />
        </mxCell>
        <mxCell id="x9D5OUzTq40V8jvRdq4F-3" value="" style="ellipse;whiteSpace=wrap;html=1;fillColor=none;strokeColor=#FFFFFF;" vertex="1" parent="x9D5OUzTq40V8jvRdq4F-1">
          <mxGeometry x="128" y="160" width="145" height="70" as="geometry" />
        </mxCell>
        <mxCell id="x9D5OUzTq40V8jvRdq4F-2" value="Actor" style="shape=umlActor;verticalLabelPosition=bottom;verticalAlign=top;html=1;outlineConnect=0;strokeColor=#FFFFFF;fillColor=none;shadow=0;" vertex="1" parent="1">
          <mxGeometry x="660" y="600" width="65" height="130" as="geometry" />
        </mxCell>
      </root>
    </mxGraphModel>
  </diagram>
</mxfile>
